<svg width="223" height="205" viewBox="0 0 223 205" fill="none" xmlns="http://www.w3.org/2000/svg">
<path d="M18.9 55H41.25L58.35 160H41.85L38.85 139.15V139.45H20.1L17.1 160H1.8L18.9 55ZM36.9 125.2L29.55 73.3H29.25L22.05 125.2H36.9ZM66.3551 55H91.5551C99.7551 55 105.905 57.2 110.005 61.6C114.105 66 116.155 72.45 116.155 80.95V134.05C116.155 142.55 114.105 149 110.005 153.4C105.905 157.8 99.7551 160 91.5551 160H66.3551V55ZM91.2551 145C93.9551 145 96.0051 144.2 97.4051 142.6C98.9051 141 99.6551 138.4 99.6551 134.8V80.2C99.6551 76.6 98.9051 74 97.4051 72.4C96.0051 70.8 93.9551 70 91.2551 70H82.8551V145H91.2551ZM175.893 169.75C168.393 169.75 163.793 166.4 162.093 159.7C158.993 160.9 155.343 161.5 151.143 161.5C143.043 161.5 136.843 159.2 132.543 154.6C128.243 150 126.093 143.5 126.093 135.1V79.9C126.093 71.5 128.243 65 132.543 60.4C136.843 55.8 143.043 53.5 151.143 53.5C159.243 53.5 165.443 55.8 169.743 60.4C174.043 65 176.193 71.5 176.193 79.9V135.1C176.193 142.1 174.643 147.85 171.543 152.35C172.143 153.35 172.893 154 173.793 154.3C174.693 154.6 175.993 154.75 177.693 154.75H180.243V169.75H175.893ZM151.143 146.5C156.843 146.5 159.693 143.05 159.693 136.15V78.85C159.693 71.95 156.843 68.5 151.143 68.5C145.443 68.5 142.593 71.95 142.593 78.85V136.15C142.593 143.05 145.443 146.5 151.143 146.5Z" fill="white"/>
<circle cx="205.5" cy="17.5" r="17.5" fill="#BF1E2E"/>
</svg>
